<svg xmlns="http://www.w3.org/2000/svg" width="1005" height="600"><rect width="1005" height="600" x="0" y="0" fill="#FFFFFF" id="background"/><g id="viz"><g transform="translate(0,0)"><g transform="translate(50,20)"><g id="Maschi" fill="#ff7f0e"><rect x="9.867549668874119" y="412.8844363636364" width="56.96267308850091" height="147.11556363636362"/><rect x="143.52799518362428" y="406.2321454545455" width="56.96267308850091" height="153.7678545454545"/><rect x="210.35821794099937" y="330.036" width="56.96267308850091" height="229.964"/><rect x="277.18844069837445" y="272.36210909090903" width="56.96267308850091" height="287.63789090909097"/><rect x="344.0186634557495" y="289.7297454545454" width="56.96267308850091" height="270.2702545454546"/><rect x="410.8488862131246" y="388.5590545454545" width="56.96267308850091" height="171.4409454545455"/><rect x="477.6791089704997" y="483.39505454545457" width="56.96267308850091" height="76.60494545454543"/><rect x="544.5093317278747" y="535.1405818181819" width="56.96267308850091" height="24.859418181818114"/><rect x="611.3395544852499" y="553.2978181818182" width="56.96267308850091" height="6.702181818181771"/><rect x="678.1697772426248" y="559.1824" width="56.96267308850091" height="0.8175999999999704"/><rect x="76.6977724262492" y="478.5454545454545" width="56.96267308850091" height="81.4545454545455"/></g><g id="Femmine" fill="#1f77b4"><rect x="9.867549668874119" y="274.88210909090907" width="56.96267308850091" height="138.0023272727273"/><rect x="143.52799518362428" y="276.43687272727277" width="56.96267308850091" height="129.79527272727273"/><rect x="210.35821794099937" y="182.0819636363637" width="56.96267308850091" height="147.9540363636363"/><rect x="277.18844069837445" y="12.072072727272714" width="56.96267308850091" height="260.2900363636363"/><rect x="344.0186634557495" y="15.395927272727246" width="56.96267308850091" height="274.3338181818182"/><rect x="410.8488862131246" y="170.93032727272723" width="56.96267308850091" height="217.6287272727273"/><rect x="477.6791089704997" y="348.05934545454545" width="56.96267308850091" height="135.33570909090906"/><rect x="544.5093317278747" y="487.0691636363636" width="56.96267308850091" height="48.07141818181816"/><rect x="611.3395544852499" y="541.2542545454546" width="56.96267308850091" height="12.043563636363615"/><rect x="678.1697772426248" y="557.5792727272727" width="56.96267308850091" height="1.6031272727273063"/><rect x="76.6977724262492" y="343.6363636363636" width="56.96267308850091" height="134.90909090909093"/></g><g id="xAxis" transform="translate(0,560)" fill="none" font-size="10" font-family="sans-serif" text-anchor="middle"><path class="domain" stroke="currentColor" d="M0,0H745"/><g class="tick" opacity="1" transform="translate(38.34888621312457,0)"><line stroke="currentColor" y2="6"/><text fill="currentColor" y="9" dy="0.71em">0–9</text></g><g class="tick" opacity="1" transform="translate(105.17910897049966,0)"><line stroke="currentColor" y2="6"/><text fill="currentColor" y="9" dy="0.71em">100+</text></g><g class="tick" opacity="1" transform="translate(172.00933172787472,0)"><line stroke="currentColor" y2="6"/><text fill="currentColor" y="9" dy="0.71em">10–19</text></g><g class="tick" opacity="1" transform="translate(238.83955448524983,0)"><line stroke="currentColor" y2="6"/><text fill="currentColor" y="9" dy="0.71em">20–29</text></g><g class="tick" opacity="1" transform="translate(305.6697772426249,0)"><line stroke="currentColor" y2="6"/><text fill="currentColor" y="9" dy="0.71em">30–39</text></g><g class="tick" opacity="1" transform="translate(372.49999999999994,0)"><line stroke="currentColor" y2="6"/><text fill="currentColor" y="9" dy="0.71em">40–49</text></g><g class="tick" opacity="1" transform="translate(439.33022275737505,0)"><line stroke="currentColor" y2="6"/><text fill="currentColor" y="9" dy="0.71em">50–59</text></g><g class="tick" opacity="1" transform="translate(506.16044551475017,0)"><line stroke="currentColor" y2="6"/><text fill="currentColor" y="9" dy="0.71em">60–69</text></g><g class="tick" opacity="1" transform="translate(572.9906682721252,0)"><line stroke="currentColor" y2="6"/><text fill="currentColor" y="9" dy="0.71em">70–79</text></g><g class="tick" opacity="1" transform="translate(639.8208910295003,0)"><line stroke="currentColor" y2="6"/><text fill="currentColor" y="9" dy="0.71em">80–89</text></g><g class="tick" opacity="1" transform="translate(706.6511137868753,0)"><line stroke="currentColor" y2="6"/><text fill="currentColor" y="9" dy="0.71em">90–99</text></g></g><g id="yAxis" fill="none" font-size="10" font-family="sans-serif" text-anchor="end"><path class="domain" stroke="currentColor" d="M0,560V0"/><g class="tick" opacity="1" transform="translate(0,560)"><line stroke="currentColor" x2="-6"/><text fill="currentColor" x="-9" dy="0.32em">0</text></g><g class="tick" opacity="1" transform="translate(0,509.09090909090907)"><line stroke="currentColor" x2="-6"/><text fill="currentColor" x="-9" dy="0.32em">100</text></g><g class="tick" opacity="1" transform="translate(0,458.18181818181813)"><line stroke="currentColor" x2="-6"/><text fill="currentColor" x="-9" dy="0.32em">200</text></g><g class="tick" opacity="1" transform="translate(0,407.2727272727273)"><line stroke="currentColor" x2="-6"/><text fill="currentColor" x="-9" dy="0.32em">300</text></g><g class="tick" opacity="1" transform="translate(0,356.3636363636364)"><line stroke="currentColor" x2="-6"/><text fill="currentColor" x="-9" dy="0.32em">400</text></g><g class="tick" opacity="1" transform="translate(0,305.45454545454544)"><line stroke="currentColor" x2="-6"/><text fill="currentColor" x="-9" dy="0.32em">500</text></g><g class="tick" opacity="1" transform="translate(0,254.54545454545456)"><line stroke="currentColor" x2="-6"/><text fill="currentColor" x="-9" dy="0.32em">600</text></g><g class="tick" opacity="1" transform="translate(0,203.63636363636365)"><line stroke="currentColor" x2="-6"/><text fill="currentColor" x="-9" dy="0.32em">700</text></g><g class="tick" opacity="1" transform="translate(0,152.72727272727272)"><line stroke="currentColor" x2="-6"/><text fill="currentColor" x="-9" dy="0.32em">800</text></g><g class="tick" opacity="1" transform="translate(0,101.81818181818178)"><line stroke="currentColor" x2="-6"/><text fill="currentColor" x="-9" dy="0.32em">900</text></g><g class="tick" opacity="1" transform="translate(0,50.90909090909093)"><line stroke="currentColor" x2="-6"/><text fill="currentColor" x="-9" dy="0.32em">1,000</text></g><g class="tick" opacity="1" transform="translate(0,0)"><line stroke="currentColor" x2="-6"/><text fill="currentColor" x="-9" dy="0.32em">1,100</text></g></g><text y="556" x="745" text-anchor="end" style="font-family: Arial, sans-serif; font-size: 12px; fill: rgb(123, 123, 123); font-weight: bold;">Fascia d’età</text></g><text x="4" y="4" style="font-family: Arial, sans-serif; font-size: 12px; fill: black; font-weight: bold; dominant-baseline: hanging;"/></g><g id="grid"><rect x="0" y="0" width="805" height="600" fill="none" stroke="#ccc"/></g></g><g id="legend" transform="translate(805,20)"><g transform="translate(5,0)"><g class="legendColor" transform="translate(0,0)"><g class="legendCells" transform="translate(0,15.5)"><g class="cell" transform="translate(0, 0)"><rect class="swatch" height="15" width="15" style="fill: rgb(31, 119, 180);"/><text class="label" transform="translate( 20, 12.5)" font-family="&quot;Arial&quot;, sans-serif" font-size="10px"><tspan x="0" dy="0em">Femmine</tspan></text></g><g class="cell" transform="translate(0, 20.5)"><rect class="swatch" height="15" width="15" style="fill: rgb(255, 127, 14);"/><text class="label" transform="translate( 20, 12.5)" font-family="&quot;Arial&quot;, sans-serif" font-size="10px"><tspan x="0" dy="0em">Maschi</tspan></text></g></g><text class="legendTitle" font-family="&quot;Arial&quot;, sans-serif" font-size="12px" font-weight="bold"><tspan x="0" dy="0em">Colors</tspan></text></g></g></g></svg>